<svg id="Capa_1" enable-background="new 0 0 511.221 511.221" height="512" viewBox="0 0 511.221 511.221" width="512" xmlns="http://www.w3.org/2000/svg" xmlns:xlink="http://www.w3.org/1999/xlink"><linearGradient id="SVGID_1_" gradientUnits="userSpaceOnUse" x1="276.764" x2="276.764" y1="289.15" y2="381.916"><stop offset=".00000036422" stop-color="#a8abff"/><stop offset="1" stop-color="#fac8ff"/></linearGradient><linearGradient id="SVGID_2_" gradientUnits="userSpaceOnUse" x1="119.593" x2="119.593" y1="247.93" y2="503.61"><stop offset=".00000083866" stop-color="#96d1f3"/><stop offset="1" stop-color="#ccfff4"/></linearGradient><linearGradient id="SVGID_3_" gradientUnits="userSpaceOnUse" x1="255.61" x2="255.61" y1=".11" y2="511.11"><stop offset=".00000011981" stop-color="#174fa3"/><stop offset="1" stop-color="#b044af"/></linearGradient><g id="Filled_29_"><path d="m133.721 503.61v-496h370v456c0 22.091-17.909 40-40 40z" fill="#fff"/><path d="m313.147 345.533c0 20.094-16.289 36.383-36.383 36.383s-36.383-16.289-36.383-36.383 36.383-56.383 36.383-56.383 36.383 36.29 36.383 56.383z" fill="url(#SVGID_1_)"/><path d="m163.381 306.312v-145.362h-87.575v145.362l-66.531 164.082c-6.437 15.874 5.245 33.216 22.374 33.216h175.889c17.129 0 28.811-17.342 22.374-33.216z" fill="#fff"/><path d="m207.541 503.61h-175.89c-17.13 0-28.81-17.34-22.38-33.22l66.54-164.08v-58.38h87.57v58.38l66.53 164.08c6.44 15.88-5.24 33.22-22.37 33.22z" fill="url(#SVGID_2_)"/><path d="m162.434 160.95h-85.681c-9.724 0-17.606-7.883-17.606-17.606 0-9.724 7.883-17.606 17.606-17.606h85.681c9.724 0 17.606 7.883 17.606 17.606 0 9.723-7.882 17.606-17.606 17.606z" fill="#fff"/><path d="m126.221.11v118.127h-49.468c-13.844 0-25.106 11.263-25.106 25.106 0 10.881 6.959 20.164 16.659 23.64v137.865l-65.981 162.727c-3.962 9.771-2.811 20.825 3.08 29.569s15.701 13.965 26.245 13.965l432.072.001c26.191 0 47.5-21.309 47.5-47.5v-463.5zm-49.468 133.127h85.681c5.573 0 10.106 4.534 10.106 10.106s-4.534 10.106-10.106 10.106h-85.681c-5.573 0-10.106-4.534-10.106-10.106s4.534-10.106 10.106-10.106zm79.128 35.213v71.98h-72.575v-71.98zm-124.232 327.659c-5.628 0-10.66-2.677-13.804-7.345-3.145-4.668-3.735-10.337-1.62-15.553l20.347-50.182h45.338v-15h-39.255l18.246-45h51.009v-15h-44.927l16.323-40.256v-52.344h72.575v52.344l67.082 165.438c2.115 5.217 1.525 10.886-1.62 15.554-3.144 4.667-8.174 7.344-13.802 7.344zm202.786.001c5.307-8.572 6.236-19.143 2.428-28.535l-14.786-36.465h194.144v32.5c0 12.179 4.558 23.66 12.866 32.5zm261.786-32.5c0 17.921-14.58 32.5-32.5 32.5-8.675 0-16.835-3.382-22.977-9.523-6.141-6.141-9.523-14.301-9.523-22.977v-47.5h-215.226l-45.114-111.262v-137.864c9.7-3.476 16.66-12.759 16.66-23.64 0-13.844-11.263-25.106-25.106-25.106h-21.213v-103.128h355v448.5zm-27.829-425.98h-167.426v146.214h167.426zm-15 131.214h-137.426v-116.214h137.426zm-268.642-83.374-15.1-.05.05-14.95 15.05.05zm87 0-72.1-.05.05-14.95h72.05zm-.049 42.11h-67.74v-15h67.74zm5.063 150.978-5.296 5.282c-3.95 3.939-38.586 39.139-38.586 61.693 0 24.197 19.686 43.883 43.883 43.883s43.883-19.686 43.883-43.883c0-22.555-34.637-57.754-38.587-61.693zm0 95.858c-15.926 0-28.883-12.957-28.883-28.883 0-10.795 16.023-31.666 28.883-45.561 12.86 13.895 28.883 34.766 28.883 45.561 0 15.926-12.957 28.883-28.883 28.883zm-45.66-166.647h229.787v15h-229.787zm215 40h14.787v15h-14.787zm-45 15h-170v-15h170zm30-15v15h-15v-15zm-85.106 59.033h114.894v15h-114.894zm99.002 49.998 15.05.05v14.95l-15.1-.05zm-99 0h84.05v15l-84.1-.05zm31.181-238.59-27.4-.02.05-14.95h27.35v-27.4l15 .05v27.351h27.4v15l-27.4-.02v27.419l-15-.05zm-265.087 338.825h15v15h-15zm38-61h15v15h-15zm-33-92h15v15h-15z" fill="url(#SVGID_3_)"/></g></svg>